<svg xmlns="http://www.w3.org/2000/svg" xmlns:xlink="http://www.w3.org/1999/xlink" viewBox="0 0 497.76 388.39"><defs><style>.cls-1{fill:#e2eef8}.cls-5{fill:#fff}.cls-20{opacity:.5}.cls-10{fill:#c7dcf1}.cls-36{fill:#a0c2ff}.cls-39{fill:#fdbd4e}.cls-41{fill:#38426a}.cls-44{fill:#171b20}.cls-47{fill:#cc2128}.cls-52{fill:#14113d}</style><linearGradient id="linear-gradient" x1="157.19" x2="246.59" y1="410.65" y2="255.8" gradientUnits="userSpaceOnUse"><stop offset="0" stop-color="#b5cfec"/><stop offset=".47" stop-color="#4594d0"/><stop offset=".98" stop-color="#3b69b2"/></linearGradient><linearGradient id="linear-gradient-2" x1="381.04" x2="152.29" y1="171.77" y2="171.77" gradientUnits="userSpaceOnUse"><stop offset="0" stop-color="#4594d0"/><stop offset="1" stop-color="#b5cfec"/></linearGradient><linearGradient id="linear-gradient-3" x1="109.9" x2="411.53" y1="86.15" y2="260.3" gradientUnits="userSpaceOnUse"><stop offset=".02" stop-color="#73baff"/><stop offset=".48" stop-color="#4594d0"/><stop offset="1" stop-color="#407dc0"/></linearGradient><linearGradient id="linear-gradient-4" x1="353.47" x2="168.23" y1="173.14" y2="173.14" xlink:href="#linear-gradient-3"/><linearGradient id="linear-gradient-5" x1="241.55" x2="268.61" y1="294.2" y2="294.2" gradientUnits="userSpaceOnUse"><stop offset="0" stop-color="#3b69b2"/><stop offset="1" stop-color="#2e477e"/></linearGradient><linearGradient id="linear-gradient-6" x1="183.02" x2="210.25" y1="101" y2="101" xlink:href="#linear-gradient-2"/><linearGradient id="linear-gradient-7" x1="183.02" x2="210.25" y1="136.58" y2="136.58" xlink:href="#linear-gradient-2"/><linearGradient id="linear-gradient-8" x1="220.42" x2="337.62" y1="195.52" y2="195.52" gradientUnits="userSpaceOnUse"><stop offset="0" stop-color="#4594d0"/><stop offset="1" stop-color="#3b69b2"/></linearGradient><linearGradient id="linear-gradient-9" x1="183.02" x2="210.25" y1="172.17" y2="172.17" xlink:href="#linear-gradient-8"/><linearGradient id="linear-gradient-10" x1="183.02" x2="210.25" y1="207.75" y2="207.75" xlink:href="#linear-gradient-8"/><linearGradient id="linear-gradient-11" x1="183.02" x2="210.25" y1="243.34" y2="243.34" xlink:href="#linear-gradient-8"/><linearGradient id="linear-gradient-12" x1="280.67" x2="337.62" y1="111.31" y2="111.31" xlink:href="#linear-gradient-8"/><linearGradient id="linear-gradient-13" x1="183.02" x2="210.08" y1="72.91" y2="72.91" xlink:href="#linear-gradient-8"/><linearGradient id="linear-gradient-14" x1="233.41" x2="253" y1="130.93" y2="164.86" gradientTransform="translate(1.89 -3.66) rotate(0.76)" xlink:href="#linear-gradient-8"/><linearGradient id="linear-gradient-15" x1="240.01" x2="247.83" y1="146.27" y2="146.27" gradientUnits="userSpaceOnUse"><stop offset="0" stop-color="#f1f2f9"/><stop offset="0" stop-color="#f0f1f9"/><stop offset=".07" stop-color="#dae4f4"/><stop offset=".14" stop-color="#c9daf0"/><stop offset=".23" stop-color="#bed3ed"/><stop offset=".36" stop-color="#b7cfeb"/><stop offset=".72" stop-color="#b5ceeb"/><stop offset=".74" stop-color="#bad1ec"/><stop offset=".85" stop-color="#d8e3f3"/><stop offset=".94" stop-color="#eaeef7"/><stop offset="1" stop-color="#f1f2f9"/></linearGradient><linearGradient id="linear-gradient-16" x1="236.33" x2="251.39" y1="141.91" y2="150.61" gradientUnits="userSpaceOnUse"><stop offset="0" stop-color="#b5ceeb"/><stop offset="0" stop-color="#b6cfeb"/><stop offset=".04" stop-color="#ccdcf0"/><stop offset=".1" stop-color="#dde6f4"/><stop offset=".16" stop-color="#e8edf7"/><stop offset=".25" stop-color="#eff1f9"/><stop offset=".49" stop-color="#f1f2f9"/><stop offset="1" stop-color="#b5ceeb"/></linearGradient><linearGradient id="linear-gradient-17" x1="179.34" x2="342.35" y1="31.97" y2="314.31" gradientUnits="userSpaceOnUse"><stop offset="0" stop-color="#f1f2f9"/><stop offset=".06" stop-color="#f1f2f9"/><stop offset=".42" stop-color="#f1f2f9"/><stop offset=".96" stop-color="#b5ceeb"/></linearGradient><linearGradient id="linear-gradient-18" x1="109.27" x2="410.9" y1="87.24" y2="261.39" xlink:href="#linear-gradient-3"/><linearGradient id="linear-gradient-19" x1="108.4" x2="170.42" y1="82.21" y2="118.01" gradientUnits="userSpaceOnUse"><stop offset=".02" stop-color="#73baff"/><stop offset=".48" stop-color="#4594d0"/><stop offset="1" stop-color="#3b69b2"/></linearGradient><linearGradient id="linear-gradient-20" x1="98.28" x2="160.3" y1="99.73" y2="135.54" xlink:href="#linear-gradient-19"/><linearGradient id="linear-gradient-21" x1="88.9" x2="150.92" y1="115.97" y2="151.78" xlink:href="#linear-gradient-19"/><linearGradient id="linear-gradient-22" x1="105.41" x2="167.43" y1="87.38" y2="123.18" xlink:href="#linear-gradient-19"/><linearGradient id="linear-gradient-23" x1="121.02" x2="183.04" y1="60.34" y2="96.14" xlink:href="#linear-gradient-19"/><linearGradient id="linear-gradient-24" x1="128.34" x2="183.52" y1="141.18" y2="141.18" xlink:href="#linear-gradient-19"/><linearGradient id="linear-gradient-25" x1="117.26" x2="107.75" y1="215.67" y2="215.67" xlink:href="#linear-gradient-19"/><linearGradient id="linear-gradient-26" x1="116.26" x2="183.52" y1="185.24" y2="185.24" xlink:href="#linear-gradient-19"/><linearGradient id="linear-gradient-27" x1="337.66" x2="411.77" y1="292.14" y2="292.14" xlink:href="#linear-gradient-19"/><linearGradient id="linear-gradient-28" x1="337.66" x2="411.77" y1="221.14" y2="221.14" xlink:href="#linear-gradient-19"/><linearGradient id="linear-gradient-29" x1="337.66" x2="411.77" y1="150.14" y2="150.14" xlink:href="#linear-gradient-19"/><linearGradient id="linear-gradient-30" x1="98.6" x2="126.59" y1="175.38" y2="175.38" xlink:href="#linear-gradient-8"/><linearGradient id="linear-gradient-31" x1="113.75" x2="126.59" y1="171.9" y2="171.9" xlink:href="#linear-gradient-8"/><linearGradient id="linear-gradient-32" x1="81.48" x2="116.7" y1="66.99" y2="66.99" gradientUnits="userSpaceOnUse"><stop offset="0" stop-color="#4594d0" stop-opacity=".5"/><stop offset="1" stop-color="#b5cfec"/></linearGradient><linearGradient id="linear-gradient-33" x1="86.61" x2="121.82" y1="56.96" y2="56.96" xlink:href="#linear-gradient-32"/><linearGradient id="linear-gradient-34" x1="73.04" x2="108.25" y1="243.33" y2="243.33" xlink:href="#linear-gradient-32"/><linearGradient id="linear-gradient-35" x1="90.75" x2="100.03" y1="228.21" y2="228.21" xlink:href="#linear-gradient-8"/><linearGradient id="linear-gradient-36" x1="436.17" x2="400.26" y1="111.06" y2="111.06" xlink:href="#linear-gradient-2"/><linearGradient id="linear-gradient-37" x1="436.17" x2="400.26" y1="182.63" y2="182.63" xlink:href="#linear-gradient-2"/><linearGradient id="linear-gradient-38" x1="405.55" x2="419.99" y1="167.93" y2="167.93" xlink:href="#linear-gradient-8"/><linearGradient id="linear-gradient-39" x1="436.17" x2="400.26" y1="254.2" y2="254.2" xlink:href="#linear-gradient-2"/><linearGradient id="linear-gradient-40" x1="396.47" x2="428.43" y1="270.29" y2="270.29" xlink:href="#linear-gradient-8"/></defs><g id="Layer_2" data-name="Layer 2"><g id="Ilustracion-1_copy" data-name="Ilustracion-1 copy"><path d="M2.79 246.73c-11.88-21.9 12.26-118.32 108.77-186.82s225.11-71.06 273.15-43.49 33.44 81.58 57.23 93.91 61.28 51.22 55.15 119.08-45.45 110.25-115.4 118.93-143-8.68-170.3-24.51-32.43-34.06-51.83-46.4-55.34-21-92.27-12.33-54.79-.48-64.5-18.37z" class="cls-1"/><path fill="url(#linear-gradient)" d="M222.86 276.55l120.37 35.05L183.18 387a14.17 14.17 0 0 1-9.94.8L63.65 356.54a2.83 2.83 0 0 1-.42-5.29z"/><path fill="none" d="M150.55 18.14l-.08 252.06a8.93 8.93 0 0 0 6.47 8.58l202.66 58c.13 0 .25 0 .38.08a12.09 12.09 0 0 1-3.6-2.73 12.09 12.09 0 0 0 3.6 2.73 8.82 8.82 0 0 0 11-8.64l.25-251.77a8.91 8.91 0 0 0-6.45-8.57L161.93 9.57a9.28 9.28 0 0 0-2.48-.35 8.94 8.94 0 0 0-7.16 3.65l-.71 1.13a8.87 8.87 0 0 0-1.03 4.14z"/><path fill="url(#linear-gradient-2)" d="M375.22 76.41A13 13 0 0 0 365.87 64L166.68 6.78s-1.71-.43-2.27-.5c-6.54-.73-12.07 6.5-12.07 6.5l-.05.09a8.94 8.94 0 0 1 7.16-3.65 9.28 9.28 0 0 1 2.48.35l202.84 58.26a8.91 8.91 0 0 1 6.45 8.57L371 328.17a8.82 8.82 0 0 1-11 8.64 6.65 6.65 0 0 0 .61.27c2.42.89 10.7-.75 14.18-6.79a13.48 13.48 0 0 0 .2-2.12z"/><path d="M150.55 18.14l-.08 252.06a8.93 8.93 0 0 0 6.47 8.58l202.66 58a8.92 8.92 0 0 0 11.4-8.61l.25-251.77a8.91 8.91 0 0 0-6.45-8.57L161.93 9.57a8.92 8.92 0 0 0-11.38 8.57z" class="cls-5"/><path fill="url(#linear-gradient-3)" d="M150.55 18.14l-.08 252.06a8.93 8.93 0 0 0 6.47 8.58l202.66 58a8.92 8.92 0 0 0 11.4-8.61l.25-251.77a8.91 8.91 0 0 0-6.45-8.57L161.93 9.57a8.92 8.92 0 0 0-11.38 8.57z" opacity=".5"/><path fill="#ebf2fa" d="M171.23 43.45V254.1a5.76 5.76 0 0 0 4.15 5.53l167.72 48.74a5.77 5.77 0 0 0 7.37-5.53V92.19a5.77 5.77 0 0 0-4.16-5.53L178.59 37.92a5.75 5.75 0 0 0-7.36 5.53z"/><path fill="url(#linear-gradient-4)" d="M177 37.69a5.64 5.64 0 0 1 1.61.23l167.7 48.74a5.77 5.77 0 0 1 4.16 5.53v210.65a5.77 5.77 0 0 1-5.75 5.76 6.09 6.09 0 0 1-1.62-.23l-167.72-48.74a5.76 5.76 0 0 1-4.15-5.53V43.45a5.77 5.77 0 0 1 5.77-5.76m0-3a8.76 8.76 0 0 0-8.75 8.76V254.1a8.81 8.81 0 0 0 6.31 8.41l167.72 48.74a9 9 0 0 0 2.46.35 8.77 8.77 0 0 0 8.75-8.76V92.19a8.81 8.81 0 0 0-6.32-8.41L179.43 35a8.9 8.9 0 0 0-2.45-.35z" opacity=".5"/><path fill="url(#linear-gradient-5)" d="M241.55 290.17v5.55a2.24 2.24 0 0 0 1.63 2.16l8.82 2.52a2.25 2.25 0 0 0 2.88-2.16v-5.56a2.26 2.26 0 0 0-1.64-2.16l-8.82-2.52a2.25 2.25 0 0 0-2.87 2.17z"/><path d="M224.44 94.15l110.91 32.23a3.15 3.15 0 0 1 2.27 3v22.13a3.14 3.14 0 0 1-4 3L222.7 122.88a3.15 3.15 0 0 1-2.28-3V97.17a3.15 3.15 0 0 1 4.02-3.02z" class="cls-10"/><path fill="url(#linear-gradient-6)" d="M187 83.58l21 6.09a3.14 3.14 0 0 1 2.27 3v22.7a3.14 3.14 0 0 1-4 3l-21-6a3.15 3.15 0 0 1-2.27-3V86.6a3.15 3.15 0 0 1 4-3.02z"/><path d="M224.44 129.74L335.35 162a3.15 3.15 0 0 1 2.27 3v22.12a3.15 3.15 0 0 1-4 3L222.7 158.46a3.14 3.14 0 0 1-2.28-3v-22.7a3.14 3.14 0 0 1 4.02-3.02z" class="cls-10"/><path fill="url(#linear-gradient-7)" d="M187 119.17l21 6.08a3.15 3.15 0 0 1 2.27 3V151a3.14 3.14 0 0 1-4 3l-21-6a3.16 3.16 0 0 1-2.27-3v-22.81a3.14 3.14 0 0 1 4-3.02z"/><path fill="url(#linear-gradient-8)" d="M224.44 165.32l110.91 32.23a3.15 3.15 0 0 1 2.27 3v22.15a3.14 3.14 0 0 1-4 3L222.7 194.05a3.15 3.15 0 0 1-2.28-3v-22.71a3.15 3.15 0 0 1 4.02-3.02z"/><path fill="url(#linear-gradient-9)" d="M187 154.75l21 6.09a3.14 3.14 0 0 1 2.27 3v22.71a3.14 3.14 0 0 1-4 3l-21-6a3.15 3.15 0 0 1-2.27-3v-22.78a3.15 3.15 0 0 1 4-3.02z"/><path d="M224.44 200.91l110.91 32.23a3.15 3.15 0 0 1 2.27 3v22.12a3.15 3.15 0 0 1-4 3L222.7 229.63a3.14 3.14 0 0 1-2.28-3v-22.7a3.14 3.14 0 0 1 4.02-3.02z" class="cls-10"/><path fill="url(#linear-gradient-10)" d="M186.64 190.22l21.57 6.27a2.83 2.83 0 0 1 2 2.72v23.35a2.84 2.84 0 0 1-3.62 2.73l-21.56-6.2a2.83 2.83 0 0 1-2-2.72v-23.43a2.84 2.84 0 0 1 3.61-2.72z"/><path d="M224.44 236.49l110.91 32.23a3.15 3.15 0 0 1 2.27 3v22.13a3.14 3.14 0 0 1-4 3L222.7 265.22a3.15 3.15 0 0 1-2.28-3v-22.71a3.15 3.15 0 0 1 4.02-3.02z" class="cls-10"/><path fill="url(#linear-gradient-11)" d="M187 225.92l21 6.08a3.14 3.14 0 0 1 2.27 3v22.71a3.14 3.14 0 0 1-4 3l-21-6a3.15 3.15 0 0 1-2.27-3v-22.77a3.15 3.15 0 0 1 4-3.02z"/><path d="M336 109.81l-52.42-15a2.26 2.26 0 0 0-2.89 2.17v5.53a2.27 2.27 0 0 0 1.64 2.18l52.42 15.06a2.27 2.27 0 0 0 2.89-2.18V112a2.26 2.26 0 0 0-1.64-2.19z" class="cls-10"/><path fill="url(#linear-gradient-12)" d="M336 109.81l-24-6.88a2.27 2.27 0 0 0-2.89 2.18v5.53a2.27 2.27 0 0 0 1.64 2.18l24 6.88a2.27 2.27 0 0 0 2.89-2.18V112a2.26 2.26 0 0 0-1.64-2.19z"/><path d="M249.4 84.95l-28.98-8.33v10.25l28.98 8.32V84.95zM183 68.87v5.56a2.24 2.24 0 0 0 1.63 2.16l22.56 6.48a2.25 2.25 0 0 0 2.87-2.16v-5.56a2.24 2.24 0 0 0-1.63-2.16l-22.56-6.48a2.25 2.25 0 0 0-2.87 2.16z" class="cls-10"/><path fill="url(#linear-gradient-13)" d="M183 68.87v5.56a2.24 2.24 0 0 0 1.63 2.16l8.77 2.52a2.24 2.24 0 0 0 2.89-2.11v-5.61a2.25 2.25 0 0 0-1.63-2.16l-8.77-2.52a2.25 2.25 0 0 0-2.89 2.16z"/><path fill="url(#linear-gradient-14)" d="M254.76 135.52l-18.94-5.44c-2.22-.7-4.06 1.34-4.11 4.55l-.21 16.08c0 3.22 1.74 6.29 3.95 6.87l2 .51-.19 13.79 8.25-11.39 8.6 2.5c2 .53 3.9-1.63 3.94-4.68l.22-16.28c.01-3.03-1.47-5.87-3.51-6.51z" opacity=".8"/><g class="cls-20"><path fill="url(#linear-gradient-15)" d="M247.58 145.83l-3-5.28-.08-.14c-.32-.44-.77-.57-1.05-.3l-.08.1-3.07 3.59a1.64 1.64 0 0 0 0 1.83c.36.63.93.79 1.26.35l1.53-1.81V151a1.58 1.58 0 0 0 .89 1.52c.48.12.88-.36.88-1.06v-6.83l1.51 2.63c.35.63.91.78 1.22.34a1.37 1.37 0 0 0 .24-.86 1.65 1.65 0 0 0-.25-.91z"/><path fill="url(#linear-gradient-16)" d="M250.87 148.19c0-5.53-3.09-11-6.9-12.14s-7.13 2.57-7.13 8.28 3.24 11.22 7.13 12.19 6.9-2.75 6.9-8.33zM244 154c-2.91-.75-5.32-4.86-5.32-9.12s2.41-7.05 5.32-6.2 5.18 4.92 5.18 9.08-2.35 6.93-5.18 6.24z"/></g><g class="cls-20"><path fill="url(#linear-gradient-17)" d="M350.47 92.19v210.65a5.77 5.77 0 0 1-5.75 5.76 6.09 6.09 0 0 1-1.62-.23l-167.72-48.74M177 34.69a8.76 8.76 0 0 0-8.75 8.76V254.1a8.81 8.81 0 0 0 6.31 8.41l167.72 48.74a9 9 0 0 0 2.46.35 8.77 8.77 0 0 0 8.75-8.76V92.19a8.81 8.81 0 0 0-6.32-8.41L179.43 35a8.9 8.9 0 0 0-2.45-.35z" opacity=".2"/><path fill="url(#linear-gradient-18)" d="M353.35 90.78a9.36 9.36 0 0 1 .12 1.41v210.65a8.77 8.77 0 0 1-8.75 8.76 9 9 0 0 1-2.46-.35l-167.72-48.74a10.22 10.22 0 0 1-1.24-.47L156 278.46a8.7 8.7 0 0 0 .9.32l202.66 58a8.92 8.92 0 0 0 11.44-8.61l.25-251.77a9 9 0 0 0-.31-2.33z" opacity=".8"/></g><path fill="none" stroke="url(#linear-gradient-19)" stroke-linecap="round" stroke-miterlimit="10" d="M109.26 81.71v2"/><path fill="none" stroke="url(#linear-gradient-20)" stroke-dasharray="3.89 3.89" stroke-linecap="round" stroke-miterlimit="10" d="M109.26 87.6v36.94"/><path fill="none" stroke="url(#linear-gradient-21)" stroke-linecap="round" stroke-miterlimit="10" d="M109.26 126.49v2l1.82-.83"/><path fill="none" stroke="url(#linear-gradient-22)" stroke-dasharray="4.05 4.05" stroke-linecap="round" stroke-miterlimit="10" d="M114.77 126l64.58-29.15"/><path fill="none" stroke="url(#linear-gradient-23)" stroke-linecap="round" stroke-miterlimit="10" d="M181.19 96.01l1.83-.82"/><path fill="none" stroke="url(#linear-gradient-24)" stroke-dasharray="4" stroke-linecap="round" stroke-miterlimit="10" d="M128.84 153.88l54.18-25.39"/><path fill="none" stroke="url(#linear-gradient-25)" stroke-dasharray="4" stroke-linecap="round" stroke-miterlimit="10" d="M116.76 184.03v59.11l-8.51 4.17"/><path fill="none" stroke="url(#linear-gradient-26)" stroke-dasharray="4" stroke-linecap="round" stroke-miterlimit="10" d="M116.76 200.7l66.26-30.93"/><path fill="none" stroke="url(#linear-gradient-27)" stroke-dasharray="4" stroke-linecap="round" stroke-miterlimit="10" d="M338.16 283.82l73.11 21.25v-26.03"/><path fill="none" stroke="url(#linear-gradient-28)" stroke-dasharray="4" stroke-linecap="round" stroke-miterlimit="10" d="M338.16 212.82l73.11 21.25v-26.03"/><path fill="none" stroke="url(#linear-gradient-29)" stroke-dasharray="4" stroke-linecap="round" stroke-miterlimit="10" d="M338.16 141.82l73.11 21.25v-26.03"/><path d="M128.93 141.37l-35.21 15.57v37.19l35.21-15.44v-37.32z" class="cls-36"/><path d="M98.4 169.77c.2-1.72 1.11-3.25 1.7-4.87 2.64-7.22-1.1-15.35.42-22.89a13.54 13.54 0 0 1 7.06-9.62c3.74-1.76 8.66-1.08 11.34 2.07a13.3 13.3 0 0 1 2.25 4.26c2.57 7.26 2.55 15.21 1.43 22.83A18.49 18.49 0 0 1 105.82 177c-3.96.32-7.9-3.16-7.42-7.23z" class="cls-5"/><path fill="url(#linear-gradient-30)" d="M98.89 181.45c.14-3.79.47-8 3.27-10.56a35.25 35.25 0 0 1 3.58-2.44 5.15 5.15 0 0 0 2.41-3.44 1.44 1.44 0 0 1 .14-.65 1.33 1.33 0 0 1 1-.46 14.23 14.23 0 0 0 6.37-2.57 1.1 1.1 0 0 1 .9-.32 1.31 1.31 0 0 1 .46.35c1.59 1.53 4.32 1 6.15 2.22 1.68 1.14 2.1 3.4 2.36 5.41l.91 6.75c.16 1.21.28 2.57-.49 3.52a4.92 4.92 0 0 1-2.73 1.32c-4.46 1.15-8.59 3.25-12.73 5.23-1.81.87-10.24 5.61-11.4 3.35-.94-1.89-.27-5.66-.2-7.71z"/><path fill="url(#linear-gradient-31)" d="M126.47 175.74l-.91-6.75c-.26-2-.68-4.27-2.36-5.41-1.83-1.23-4.56-.69-6.15-2.22a1.31 1.31 0 0 0-.46-.35 1.1 1.1 0 0 0-.9.32 14.63 14.63 0 0 1-1.94 1.16c0 .19.07.39.1.59.36 3.5.24 7 1 10.47.5 2.24 1.41 4.39 1.92 6.63a7.84 7.84 0 0 1 .17 2.63 42.59 42.59 0 0 1 6.31-2.23 4.92 4.92 0 0 0 2.73-1.32c.77-.95.65-2.26.49-3.52z"/><path d="M110 173.84c2.71 2.73 5.45 5.51 7.26 8.89q1.91-9.42 3.26-19a9 9 0 0 1-3.65-1.69c-1.55-1.21-2.64-2.05-4.7-1.65-1.34.26-2.94.92-3.5 2.28-.39.95-.12 2.09-.22 3.08a9.74 9.74 0 0 1-1.94 4.48 42 42 0 0 0 3.49 3.61z" class="cls-39"/><path fill="#2b3356" d="M108.51 163.94a2.17 2.17 0 0 0 .26.94 2.19 2.19 0 0 0 1.39.8 8.82 8.82 0 0 0 3.1.4 3.87 3.87 0 0 0 2.73-1.35c.92-1.19.82-2.84.68-4.34-.22-2.26-.15-4.6-.37-6.87 0-.25-.35-.45-.55-.6a1 1 0 0 0-.81 0c-1.48.43-3 .92-4.39 1.46-1.73.65-2.41.23-2.42 2a70.8 70.8 0 0 0 .38 7.56z"/><path d="M102.82 150.62c.41 1.33.94 2.81 2.21 3.38.29.13 1-.46 1-.46a18.16 18.16 0 0 0 .87 1.64 9.38 9.38 0 0 0 4 3.47 4 4 0 0 0 4.51-.9 9.2 9.2 0 0 0 1.56-2.42 19.29 19.29 0 0 0 1.37-7.82c0-.56.08-1.27-.44-1.48a1.49 1.49 0 0 0-.81 0c-1.83.32-3.58-.81-5-2a31.72 31.72 0 0 1-3.54-3.51c.78.91-1.63 6.68-2.39 7.46-1 1-.84.14-2 0-1.71-.08-1.71 1.41-1.34 2.64z" class="cls-41"/><path fill="url(#linear-gradient-32)" d="M116.69 40.61L81.48 56.19v37.18l35.21-15.44V40.61z"/><path fill="url(#linear-gradient-33)" d="M121.82 30.58L86.61 46.16v37.19l35.21-15.45V30.58z"/><path d="M126.95 21.57L91.74 37.15v37.19l35.21-15.44V21.57z" class="cls-36"/><path d="M102.28 42.54a12.86 12.86 0 0 1-8.15-2.21c2.22-1.28 2.86-4.12 3.45-6.61 1.1-4.7 2.93-9.49 6.63-12.57s9.74-3.79 13.21-.44c2.8 2.69 3.58 7.45 7.15 9 .43.19-3 5-3.4 5.43a18.39 18.39 0 0 1-5.36 4.07 36 36 0 0 1-13.53 3.33z" class="cls-44"/><path fill="#880c10" d="M109 59.3a41.77 41.77 0 0 1-6.69-7 1 1 0 0 1-.24-.45.89.89 0 0 1 .08-.48 5.23 5.23 0 0 1 2.89-2.46 33.56 33.56 0 0 1 6.56-2.42c1.52-.36 3.08-.58 4.63-.8a15.65 15.65 0 0 1 3.29-.15 6 6 0 0 1 2 .51c.24.15-.11.7-.07 1a1.08 1.08 0 0 1-.07.43 39.37 39.37 0 0 1-5.17 10.38 3.31 3.31 0 0 1-.6.69 3.17 3.17 0 0 1-1.18.54 18.49 18.49 0 0 1-3.11.65c-1 .12-2.23.08-2.81-.77"/><path fill="#b2c4d9" d="M108.05 48.69a7 7 0 0 1 0 1.83 6.63 6.63 0 0 1-1.72 2.82 8.68 8.68 0 0 1-2.82 2.41 21.36 21.36 0 0 0 10.94-.85 13.83 13.83 0 0 0 4.25-2 6.53 6.53 0 0 0 2.59-3.82.28.28 0 0 0 0-.2c-.05-.14-.25-.16-.4-.15a9.2 9.2 0 0 1-3.49-.56 2.32 2.32 0 0 1-1.12-.71 2.56 2.56 0 0 1-.37-1.22 30.74 30.74 0 0 1-.17-5.51 1.29 1.29 0 0 0-.14-.87 1 1 0 0 0-.6-.35 5.36 5.36 0 0 0-2.29 0 20.62 20.62 0 0 0-2.56.59 6.57 6.57 0 0 0-2.36.94c-.4.39-.25.95-.2 1.45.08 1 .15 1.93.22 2.9z"/><path d="M104.41 30a20.21 20.21 0 0 0 4.77.57 7.83 7.83 0 0 0 4.5-1.47 11.86 11.86 0 0 0 2.41-2.86c1.36 3.34 1.1 7.09.82 10.69a10.73 10.73 0 0 1-.62 3.33 8.5 8.5 0 0 1-1.66 2.38 5.84 5.84 0 0 1-2.12 1.58 4.49 4.49 0 0 1-4.34-1.11 13 13 0 0 1-2.68-3.82 1.37 1.37 0 0 1-1.92.55 3.34 3.34 0 0 1-1.35-1.77 3.77 3.77 0 0 1-.16-3.3 1.5 1.5 0 0 1 .82-.69c1.07-.31 2 1.25 2 1.25a31.45 31.45 0 0 1-.47-5.33z" class="cls-10"/><path d="M106.1 55.58a28.65 28.65 0 0 0 14.13-5.53c.21-.17.52-.34.73-.17a.62.62 0 0 1 .14.46c0 3.92-2.15 7.49-4.39 10.7a4.56 4.56 0 0 1-1.11 1.24c-1.14.78-2.7.42-4-.11a19.39 19.39 0 0 1-4.84-2.87 19 19 0 0 1-2.07-1.94c-.44-.48-1.38-1.3-1.47-2a3.49 3.49 0 0 1 1.05.17 5.5 5.5 0 0 0 1.83.05z" class="cls-39"/><path d="M97.47 63.15c-.39 2.56-.13 5.18-.32 7.76 9.37-3.58 18.72-7.23 27.78-11.52a1.52 1.52 0 0 0 .58-.42 1.41 1.41 0 0 0 .16-.54 12.22 12.22 0 0 0-2-8.42c-.31-.46-.74-.94-1.3-.92s-1 .6-1.25 1.11c-2.23 4.23-3.23 9.21-6.5 12.7a33.12 33.12 0 0 1-6.85-2.51 35 35 0 0 1-3.62-1.82c-.7-.43-2.37-2.23-3.06-2-.4.16-1 .93-1.28 1.24a7.15 7.15 0 0 0-1.14 1.54 10.65 10.65 0 0 0-1.2 3.8z" class="cls-47"/><path fill="#b01a20" d="M123.72 50c-.31-.46-.74-.94-1.3-.92s-1 .6-1.25 1.11c-2.22 4.2-3.22 9.15-6.44 12.63l.2 1q5-2.13 10-4.46a1.52 1.52 0 0 0 .58-.42 1.41 1.41 0 0 0 .16-.54 12.22 12.22 0 0 0-1.95-8.4z"/><path d="M119 52.26a21.53 21.53 0 0 0 1-5c0-.39.1-1.63.1-1.63a6.08 6.08 0 0 1 1.68.57 9 9 0 0 1 1.28.91 1.64 1.64 0 0 1 .54.76 1.77 1.77 0 0 1 0 .79 18.28 18.28 0 0 1-1.08 3q-1.06 2.34-2.22 4.74a18.69 18.69 0 0 1-4.59 6.5 1.1 1.1 0 0 1-.95.32c-.68-.24.4-1.59.57-1.93.47-1 .92-1.95 1.35-2.93.87-2 1.65-4.04 2.32-6.1z" class="cls-47"/><path fill="#e52836" d="M101.9 51a.68.68 0 0 1 .34-.19.73.73 0 0 1 .51.28c3 3.09 5.5 6.79 9 9.26 1 .71 2.12 1.31 3.12 2.06.19.14.4.34.36.58s-.45.38-.76.37a20.47 20.47 0 0 1-7-1.92c-3-1.21-6-2.49-8.19-4.82-1.28-1.5 1.48-4.68 2.62-5.62z"/><path fill="url(#linear-gradient-34)" d="M108.25 216.95l-35.21 15.58v37.19l35.21-15.45v-37.32z"/><path fill="#a3b3c5" d="M89.8 241.63a7.34 7.34 0 0 1-.56 4 9.61 9.61 0 0 0-1.41 2.37 40.86 40.86 0 0 0 10.9-1.18 3 3 0 0 0 1.37-.62c.69-.68.58-1.8.85-2.73a3.87 3.87 0 0 1-2.69-2.47 10.32 10.32 0 0 1-.56-3.75 13.66 13.66 0 0 0-.41-3.78 11.9 11.9 0 0 1-2.67 1.74 4 4 0 0 1-3.12.13c-.39-.16-1.62-1.17-2.06-.9s0 1.41 0 1.8c.26 1.76.21 3.59.36 5.39z"/><path d="M85.37 226.66a2 2 0 0 0-1.44 1.34 4.43 4.43 0 0 0-.12 2.05 5.29 5.29 0 0 0 1.86 3.72A1.27 1.27 0 0 0 87 234a1.42 1.42 0 0 0 .48-1.26 6.17 6.17 0 0 0 1.23 2.87 7.77 7.77 0 0 0 1.48 1.75 4.8 4.8 0 0 0 4.85.49 7.18 7.18 0 0 0 3.48-3.62 14.64 14.64 0 0 0 1.14-5 29.43 29.43 0 0 0-.15-6.08 4.49 4.49 0 0 0-1.06-2.74 4.07 4.07 0 0 0-1.76-.88 11.6 11.6 0 0 0-6.9 0 4.33 4.33 0 0 0-2.79 2.2c-.5 1.22-.08 2.55.07 3.8 0 .38.28 1.54-.24 1.66s-.83-.63-1.46-.53z" class="cls-10"/><path d="M84 217.89a9.47 9.47 0 0 1-1.26.56A2.85 2.85 0 0 0 81 220.8c0 1.06.7 2.08.48 3.11a17.16 17.16 0 0 1-.74 1.64 2.86 2.86 0 0 0 .46 2.46 6 6 0 0 0 2 1.68.8.8 0 0 0 .36.14c.35 0 .57-.37.65-.71s.13-.73.42-.93.86 0 1.17.31.6.7 1 .8a1.18 1.18 0 0 0 1.17-.54 2.59 2.59 0 0 0 .34-1.31c.06-1.18-.21-2.35-.24-3.52a.88.88 0 0 1 .16-.66.86.86 0 0 1 .84-.13c.57.14 1.11.4 1.69.54a2.16 2.16 0 0 0 1.71-.18c.76-.5.95-1.66 1.79-2a1.91 1.91 0 0 1 1.77.32c.51.36.93.84 1.44 1.2a3.8 3.8 0 0 0 4.69-.41 5.13 5.13 0 0 0 1-1.38 10.22 10.22 0 0 0 .6-7.89 3.09 3.09 0 0 0-1.35-1.87.55.55 0 0 0-.31-.08c-.32 0-.42.43-.56.72-.44.94-1.79 1-2.73.6s-1.68-1.24-2.61-1.7a4.28 4.28 0 0 0-2.11-.45 2 2 0 0 0-1.33.49c-.72.71-.48 2.09-1.31 2.67a1.76 1.76 0 0 1-1.57.08c-.51-.18-1-.47-1.5-.62a3 3 0 0 0-3.81 2.77c-.1.79.28 1.39-.57 1.94z" class="cls-39"/><path d="M105.21 244.51a1.62 1.62 0 0 0-.45-.64 1.86 1.86 0 0 0-.81-.24l-3.75-.47a1.67 1.67 0 0 0-.59 0 1.54 1.54 0 0 0-.51.33 11.94 11.94 0 0 1-9.85 2.51.93.93 0 0 0-.44 0 .88.88 0 0 0-.41.33 19.89 19.89 0 0 1-4.78 4 7.66 7.66 0 0 0-3.05 2.47 8.09 8.09 0 0 0-.67 2.45c-.64 3.49-2.37 6.76-2.54 10.3 0 .37 0 .84.39.95a.88.88 0 0 0 .61-.09l6.43-2.57c1-.39 1.94-.77 2.89-1.2 2.62-1.15 15.25-6.76 16.58-7.44a3.44 3.44 0 0 0 1.48-1.26 4.39 4.39 0 0 0 .39-2c.07-2.53.13-5.15-.92-7.43z" class="cls-52"/><path d="M99.2 242.46a1.27 1.27 0 0 1 .34-.27.7.7 0 0 1 .67.11 1.18 1.18 0 0 1 .26 1.42 2.89 2.89 0 0 1-1 1.12 13.1 13.1 0 0 1-6.36 2.4 15.41 15.41 0 0 1-3.46-.08 3.13 3.13 0 0 1-1.52-.51 1 1 0 0 1 .81-1.85c.44.09.83.43 1.29.54a7.37 7.37 0 0 0 2 .1 10.78 10.78 0 0 0 6.97-2.98z" class="cls-47"/><path fill="url(#linear-gradient-35)" d="M100 225.79c0-.24-.36-.49-.75-.49a9.7 9.7 0 0 0-1.73.14.85.85 0 0 0-.77.6 2 2 0 0 0 0 .84 7.89 7.89 0 0 0-2.05.51 2.22 2.22 0 0 0-.26-.92.43.43 0 0 0-.21-.21.5.5 0 0 0-.32 0c-1.17.38-3.23.55-3.16 2.14 0 1.29 1.21 3.17 2.73 2.59a1.9 1.9 0 0 0 1.08-1.26 5.32 5.32 0 0 0 .18-1.69v-.13l1.21-.43a4.31 4.31 0 0 1 .91-.15 3.73 3.73 0 0 0 .79 1.52 1.3 1.3 0 0 0 1.59.23 1.77 1.77 0 0 0 .57-1 7.31 7.31 0 0 0 .19-2.29z"/><path fill="url(#linear-gradient-36)" d="M436.17 134.17l-35.91-10.31V87.95l35.91 10.15v36.07z"/><path d="M430.4 142.68l-35.9-10.31v-35.9l35.9 10.14v36.07z" class="cls-36"/><path d="M414.12 85.13c2.95 0 5.61 2 7 4.62a20.26 20.26 0 0 1 2 8.53 30.34 30.34 0 0 1-.1 6.25 5 5 0 0 0-.06 1.89c.31 1.25 1.61 1.94 2.47 2.89a4.91 4.91 0 0 1 .46 5.74c-.61 1-1.58 1.73-1.8 2.85-.27 1.38.72 2.65 1.46 3.85a8.39 8.39 0 0 1 1.33 4 5.23 5.23 0 0 1-1.4 3.91 5.66 5.66 0 0 1-4.18 1.46A12.69 12.69 0 0 1 417 130a33.09 33.09 0 0 1-14.52-12.11 9.33 9.33 0 0 1-1.4-2.89 5.6 5.6 0 0 1 1.18-4.94c.88-1 2.16-1.78 2.47-3.07.48-2-1.59-3.64-2.11-5.62a7.78 7.78 0 0 1 .45-4.14l1.89-6.4a11.56 11.56 0 0 1 2.31-4.83c2.1-2.21 4.34-.83 6.85-.87z" class="cls-1"/><path fill="#334f8a" d="M405.43 115.32a3.59 3.59 0 0 0 1.49-.59c.86-.68.92-2 .92-3q0-3 .23-6c0-.24.07-.53.29-.64a.74.74 0 0 1 .33-.05l6.63.16c.37 0 .83.08 1 .43a1 1 0 0 1 0 .43c-.3 2.84-.47 5.7-.5 8.56a4.08 4.08 0 0 0 1.33 3.49l2.05 2.39a1.76 1.76 0 0 1 .4.65c.16.7-.59 1.25-1.27 1.46-2.16.68-4.51.11-6.61-.72a27.62 27.62 0 0 1-5.81-3.14c-.68-.48-2.13-1.26-2.49-2-.58-1.27 1.2-1.24 2.01-1.43z"/><path fill="#4978c4" d="M404.8 98.81a4.13 4.13 0 0 0-.36 1.51 4.68 4.68 0 0 0 .53 2c.32.45 1 .72 1.34.2a9.29 9.29 0 0 0 2.76 6.3 5 5 0 0 0 4.1 1.65 5.14 5.14 0 0 0 2.82-1.74 8.73 8.73 0 0 0 1.94-3.46c0 .56.76.86 1.28.66a1.64 1.64 0 0 0 1-1 7.87 7.87 0 0 0 .69-2.37 1.36 1.36 0 0 0-1.27-1.56 1.3 1.3 0 0 0-1.14.8 12.64 12.64 0 0 0 .39-3.46 6.24 6.24 0 0 1-3.57-4.59 12.79 12.79 0 0 1-4 2.75 5 5 0 0 1-4.66-.32s-.29 2.7-.33 2.91c-.2-.77-1.07-1.09-1.52-.28z"/><path d="M404.23 116a1.61 1.61 0 0 0-.5-.33 1.56 1.56 0 0 0-.68 0 3.66 3.66 0 0 0-3.9 4.43l-.39 11.84a1.46 1.46 0 0 0 .15.85c.22.35 8.06 2.87 10 3.48 8.35 2.66 13.75 3.46 17.32 4.34a38.91 38.91 0 0 0 1-10.59 5.78 5.78 0 0 0-.36-2.07 5.92 5.92 0 0 0-1.09-1.51 75.71 75.71 0 0 0-6.92-6.72c-1.2 1-3 .78-4.47.34s-3.4-.62-5-1.15a15.25 15.25 0 0 1-5.16-2.91z" class="cls-47"/><path d="M422.08 122.62c-.39-.38-.78-.75-1.18-1.11-6.41.67-15.25-1.14-19.8-5.41a3 3 0 0 0-1 .64l-.06.08c5.1 5.03 14.96 6.89 22.04 5.8zM427 128.47a3.58 3.58 0 0 0-.19-.55 3.8 3.8 0 0 0-.4-.68 55.78 55.78 0 0 1-27.29-6.24v1.38a56.91 56.91 0 0 0 27.88 6.09zM398.92 127v1.32a123.59 123.59 0 0 0 28.19 7c0-.41.05-.83.08-1.24a122.79 122.79 0 0 1-28.27-7.08zM398.76 131.5c0 .46-.07.91-.07 1.31 8.69 3.55 18.23 5.94 27.46 7.86.11-.35.18-.75.34-1.2-9.32-1.94-18.97-4.36-27.73-7.97z" class="cls-52"/><path d="M417.72 91.21a7.2 7.2 0 0 0-6-2.62 5.3 5.3 0 0 0-3.54 1.6 7.88 7.88 0 0 0-1.44 3.81 6.35 6.35 0 0 1 2.3-2.83 5.56 5.56 0 0 1 4-.58 7.94 7.94 0 0 1 3.73 2 7.2 7.2 0 0 1 2.23 4 8.91 8.91 0 0 0-1.28-5.38z" class="cls-39"/><path fill="url(#linear-gradient-37)" d="M436.17 205.74l-35.91-10.31v-35.91l35.91 10.15v36.07z"/><path d="M430.4 214.25l-35.9-10.31v-35.91l35.9 10.16v36.06z" class="cls-36"/><path fill="#5e7aa7" d="M407.18 187.74a7.36 7.36 0 0 1-1.05 4.69c-.35.49-.83 1-.8 1.56s.64 1.09 1.2 1.41a14.37 14.37 0 0 0 7.12 1.78c1 0 2.19-.33 2.39-1.29a2.59 2.59 0 0 0-.17-1.22c-1.09-3.68-.6-7.54-.6-11.37 0-.86-3.22-.14-4.16-.08s-2.09-.33-3-.24-1 .1-1.07 1.31a30.64 30.64 0 0 0 .14 3.45z"/><path fill="#7597ce" d="M405.41 176a.82.82 0 0 0-.8-.92 1.23 1.23 0 0 0-1.08.75 2.67 2.67 0 0 0-.19 1.37 7.61 7.61 0 0 0 .91 3.19 1.45 1.45 0 0 0 .86.82c.4.08.87-.34.68-.7a10 10 0 0 0 2.51 5.74c1 1.12 2.48 2.05 3.95 1.73a5.1 5.1 0 0 0 2.37-1.53 7.91 7.91 0 0 0 2.47-4 1.28 1.28 0 0 0 1.24 1 1.91 1.91 0 0 0 1.49-.8 4.87 4.87 0 0 0 .39-4.5 1.29 1.29 0 0 0-.57-.56 1.18 1.18 0 0 0-1.15.22 3.55 3.55 0 0 0-.75 1 16.5 16.5 0 0 0 .24-4.38 3.88 3.88 0 0 0-.35-1.51 4.27 4.27 0 0 0-1.94-1.61 12.05 12.05 0 0 0-5.26-1.74 5 5 0 0 0-4.1 1.87 2.82 2.82 0 0 0-.77 1.5c-.12.99-.11 2.06-.15 3.06z"/><path fill="url(#linear-gradient-38)" d="M407.91 163.93a6.66 6.66 0 0 1 1.38-1 5.81 5.81 0 0 1 1.45-.56 6.74 6.74 0 0 1 6.05 1.54 11.32 11.32 0 0 1 2.31 3.32 8.86 8.86 0 0 1 .6 1.38 5.88 5.88 0 0 1-.43 4.66 1 1 0 0 1-.38.42c-.32.16-.69-.05-1-.25a12.25 12.25 0 0 0-3.55-1.84 18.23 18.23 0 0 0-2.33-.37 28.77 28.77 0 0 1-4.94-1.05 3.24 3.24 0 0 1-.95-.42c-.92-.68-.56-2.12-.21-3a7.65 7.65 0 0 1 2-2.83z"/><path d="M404.37 169.58a1.3 1.3 0 0 1 .4-1 1.35 1.35 0 0 1 .53-.19 20.24 20.24 0 0 1 11 1.58 5.83 5.83 0 0 1 3.06 2.17 3.16 3.16 0 0 1 .19 2.75 1.49 1.49 0 0 1-.79.89c-.64.24-1.31-.21-1.86-.6a30.55 30.55 0 0 0-3.46-2 10.8 10.8 0 0 0-7.91-1.43c-1.41.09-1.22-1.05-1.16-2.17z" class="cls-39"/><path d="M411.23 174a2.29 2.29 0 0 1 1.89.37 16.55 16.55 0 0 1 4.79 3.66c0-.46 0-.91.07-1.37a1.8 1.8 0 0 0-.09-.8 1.76 1.76 0 0 0-.4-.5 12.86 12.86 0 0 0-4.8-2.81c-1.7-.54-3.54-.73-5-1.69a11.23 11.23 0 0 0-1.09-.7 4.26 4.26 0 0 0-1.22-.34 2.8 2.8 0 0 0-1 0 1.91 1.91 0 0 0-1.19 1.05 2.8 2.8 0 0 0-.18 1.62c.28 1.82 2.68 2.68 4.51 2.44a15.07 15.07 0 0 0 3.71-.93z" class="cls-52"/><path fill="#35983d" d="M398 204.23a1.11 1.11 0 0 0 .78.43c5.47 1.19 10.8 2.9 16.13 4.6l10.57 3.38c.51.16 1.16.27 1.48-.15a1.31 1.31 0 0 0 .13-.9c-.17-2.61.43-5.32-.41-7.79a12.11 12.11 0 0 0-4.2-5.17 60.17 60.17 0 0 1-5.12-4.07 12.54 12.54 0 0 0-1.87-1.7c-.68-.33-1.33.16-2.08.29-2.27.4-3.91-.31-6.06-1.15a2.51 2.51 0 0 0-.76-.2 2.46 2.46 0 0 0-.6.07l-2.69.56a9.11 9.11 0 0 0-2.12.64 5.92 5.92 0 0 0-2.91 4.07 14 14 0 0 0-.24 4 10.59 10.59 0 0 1 0 1.38c-.1.48-.32 1.27-.03 1.71z"/><path fill="#45b549" d="M426.63 203.8a12.11 12.11 0 0 0-4.2-5.17 60.17 60.17 0 0 1-5.12-4.07 12.54 12.54 0 0 0-1.87-1.7c-.68-.33-1.33.16-2.08.29a8.13 8.13 0 0 1-4.3-.48v14.77c1.94.6 3.87 1.2 5.8 1.82l10.57 3.38c.51.16 1.16.27 1.48-.15a1.31 1.31 0 0 0 .13-.9c-.17-2.59.43-5.32-.41-7.79z"/><path d="M410.78 192.36a10.92 10.92 0 0 0 4.4-.4.23.23 0 0 1 .23 0c.06 0 .07.11.09.18l.25 1.39a.43.43 0 0 1 0 .25.39.39 0 0 1-.2.18 6.52 6.52 0 0 1-3.22.65 14.35 14.35 0 0 1-3.34-.26 6.5 6.5 0 0 1-3-1.44 1 1 0 0 1-.4-.63 1.08 1.08 0 0 1 .21-.59c.17-.27.54-.95.9-1s.91.58 1.19.74a7.73 7.73 0 0 0 2.89.93z" class="cls-39"/><path fill="url(#linear-gradient-39)" d="M436.17 277.31L400.26 267v-35.91l35.91 10.15v36.07z"/><path d="M430.4 285.82l-35.9-10.31V239.6l35.9 10.15v36.07z" class="cls-36"/><path d="M416.52 257.51c-1.43-1.76-1.36-4.26-1.22-6.52-2.17-.25-3.74 1.46-5.73.56-.54-.24-2.33-.78-2.33-.78a4.25 4.25 0 0 1-2.24 5.53c-.67.25-1.49.38-1.85 1a2.31 2.31 0 0 0 0 1.62c.93 4.31 2 8.8 4.8 12.18a.9.9 0 0 0 .48.36.87.87 0 0 0 .54-.11c3-1.3 5.1-4 7.52-6.22 1.68-1.51 3.67-3 4.14-5.2a9.12 9.12 0 0 1-4.11-2.42z" class="cls-47"/><path fill="url(#linear-gradient-40)" d="M408.61 268.07c1.55-1.64 7.73-7.37 9.61-9.28a21.26 21.26 0 0 1 6.58 4 13.81 13.81 0 0 1 3.63 9.53 77.17 77.17 0 0 1-1.16 12.07c-6.51-2-22.76-6.59-30.8-9.36a118 118 0 0 1 1.14-15.25 3.53 3.53 0 0 1 .7-2 3.38 3.38 0 0 1 1.57-.81 23 23 0 0 1 3.49-.72c1-.12 1.81-.4 2.07.75.55 2.38 1.14 4.74 1.86 7.08.41 1.37.84 2.69 1.31 3.99z"/><path d="M420.69 241.72c-.7-.79-2.05-.33-2.77.45a7.55 7.55 0 0 0-.68-7.42 7 7 0 0 0-7.07-2.79 6.2 6.2 0 0 0-4.49 4.47v2.87c-.14-.59-1-.73-1.48-.38a2.42 2.42 0 0 0-.78 1.58 3.83 3.83 0 0 0 0 1.75 4.6 4.6 0 0 0 .9 1.48.74.74 0 0 0 1.29 0s.17 6.14 6.15 6.87c2.47.3 5-2.44 5.6-3.94a1.06 1.06 0 0 0 1.15.52 2 2 0 0 0 1.1-.73 7 7 0 0 0 1.12-2.35 2.41 2.41 0 0 0-.04-2.38z" class="cls-10"/><path d="M417.83 243.06c0-.39-1 2.41-1.16 2.75a1.23 1.23 0 0 1-1.25.49c-.5 0-1-.69-1.44-1a4.12 4.12 0 0 0-2.48-.81 5 5 0 0 0-2.78.57c-.55.33-1.28.86-2 .61s-.83-4.47-1.06-3.84a20.67 20.67 0 0 0-.34 6.28 12.32 12.32 0 0 0 1.88 4.89c1 1.47 2.49 2.82 4.24 2.68a4.49 4.49 0 0 0 2.22-.94 9.75 9.75 0 0 0 3.34-4.94 18 18 0 0 0 .83-6.74zm-6.69 5.35a6.07 6.07 0 0 1-2.76-1.09 5.13 5.13 0 0 0 1.73-.39 2.42 2.42 0 0 0 1.12-1.3 3.1 3.1 0 0 0 .82 1.24 3.53 3.53 0 0 0 2.11.67 4.68 4.68 0 0 1-3.02.87zM407.8 237.13a3.23 3.23 0 0 1-1.83.73 2.64 2.64 0 0 1-1.69-.25 2.8 2.8 0 0 1-1-1.61 2.27 2.27 0 0 1-.14-.93 1 1 0 0 1 .46-.78.63.63 0 0 1 .83.2 2.23 2.23 0 0 1-.55-1.56 1.82 1.82 0 0 1 .87-1.56 1.24 1.24 0 0 1 1.63.42 1.29 1.29 0 0 1 .1-1.36 2.38 2.38 0 0 1 1.18-.8 2.15 2.15 0 0 1 2.23.32c-.07-.66.61-1.15 1.24-1.36a5.56 5.56 0 0 1 3.58.13 2.39 2.39 0 0 1 1.41 1.11 1.1 1.1 0 0 1-.53 1.52 2.53 2.53 0 0 1 2.49.4 4.23 4.23 0 0 1 1.42 2.18 13.6 13.6 0 0 1 .4 2.62c0 .53-.91 4.06-1.43 4s-.56-.4-.74-.85a3.66 3.66 0 0 1-.16-1.44 4.13 4.13 0 0 0-.1-1.45 3.29 3.29 0 0 1-3.2-.11 4.27 4.27 0 0 1-1.9-2.65 2.1 2.1 0 0 1-1.15 1.31 4.65 4.65 0 0 1-1.74.39 1.42 1.42 0 0 1-1.13-.27 1.65 1.65 0 0 1-.55 1.65z" class="cls-52"/><path d="M230.43 186.3a22.23 22.23 0 0 0 .21-3.47c.34-3.59 3.24-6.33 5.94-8.71.53 1.47-.86 2.93-1 4.48-.19 2.23 2.19 4.14 1.82 6.35-.23 1.34-1.39 2.27-2.26 3.31-1.68 2-2.36 4.63-3.38 7.05a25.9 25.9 0 0 1-5.76 8.46c-.36-2.9-2-7.63-1-10.46s4.65-3.92 5.43-7.01z" class="cls-41"/><path d="M179.57 337.49a11.78 11.78 0 0 0-.25 1.56.86.86 0 0 0 0 .39.77.77 0 0 0 .42.35 3.71 3.71 0 0 0 2.28-.08 46.7 46.7 0 0 0 7.13-2.31 56.07 56.07 0 0 0 6.5-2.93 16.73 16.73 0 0 0 1.86-1.36.93.93 0 0 0 .22-1 .81.81 0 0 0-.64-.27 26 26 0 0 0-8.25.55 1.8 1.8 0 0 1-1.48-.08 1.59 1.59 0 0 1-.46-1.36 2.63 2.63 0 0 0-.21-1.45 1.91 1.91 0 0 0-1.47-.72c-1.09-.13-3.31-.16-3.61 1.2-.35 1.58-1 3.11-1.4 4.68-.21.95-.44 1.89-.64 2.83zM200.57 344.6a11.52 11.52 0 0 0-.25 1.56.86.86 0 0 0 0 .39.75.75 0 0 0 .42.34 3.79 3.79 0 0 0 2.28-.07 46.7 46.7 0 0 0 7.13-2.31 56.07 56.07 0 0 0 6.5-2.93 16.73 16.73 0 0 0 1.86-1.36.93.93 0 0 0 .22-1 .81.81 0 0 0-.64-.27 26 26 0 0 0-8.25.54 1.8 1.8 0 0 1-1.48-.07 1.59 1.59 0 0 1-.46-1.36 2.65 2.65 0 0 0-.21-1.46 1.9 1.9 0 0 0-1.47-.71c-1.09-.13-3.31-.16-3.61 1.2-.35 1.58-1 3.11-1.4 4.68-.21.95-.44 1.89-.64 2.83z" class="cls-39"/><path fill="#020029" d="M183.57 219.51a112.14 112.14 0 0 1-4.43 10.49c-1.48 2.56-4.79 6.21-1.18 19.53s7.35 29.49 7.18 32.22-.17 7.15-1 9-4.34 13.57-3.38 27.23c.32 4.61.31 7.44.31 9.43 0 4-.36 4.17-.58 5.14-.37 1.71 6.83 1.39 7.17-1.68s4.48-23.61 5.85-28.21 5.95-17.36 5.78-20.76 0-62.41 0-62.41z"/><path d="M188.75 219.1s-.88 5.63-2.24 8.52-7 12.26 0 21.79c4.59 10.55 10.39 26.35 11.4 30.81s1.19 9.53.68 11.91-1.7 16.68 1.53 28.26.85 17.53 1.71 18.21 4.59 1.53 6.63 0 1.37-24.85 2.39-33.53 2.63-19.07 2.85-24.68 1-39.66 0-45.62-3.41-15.26-3.41-15.26z" class="cls-52"/><path fill="#f0b449" d="M173.82 196.24a15.42 15.42 0 0 0-.46 4.48 13.61 13.61 0 0 0 1.12 3.92 59.92 59.92 0 0 0 6.52 10.89c1.32 1.85 2.88 3.84 5.13 4.22a3.07 3.07 0 0 0 2.62-.65 4.44 4.44 0 0 0 1-3c.47-7.28-1.13-14.55-1.11-21.85 0-3.71.44-7.42.11-11.12a17 17 0 0 0-2.6-8.1c-2.42-3.53-4.23-.31-5.58 2.31a77.73 77.73 0 0 0-6.75 18.9z"/><path d="M180.29 180.82a20 20 0 0 0-1.15 5.91 26 26 0 0 0 .77 5.32c1.84 9.06 2 18.38 3.66 27.46a2.93 2.93 0 0 0 .45 1.29 2.77 2.77 0 0 0 1.06.75c5.29 2.53 11.5 1.73 17.31.87l4.92-.72a4.44 4.44 0 0 0 1.74-.5 4.33 4.33 0 0 0 1.58-2.79c1.66-6.5 1.94-13.26 2.21-20 .28-6.87 2.49-13.63 2.77-20.5 0-.54-3.41-4.12-4.55-4.95a24.77 24.77 0 0 0-19.06-4.02c-2.46.48-5.94 1.28-7.89 3-2.24 1.95-2.98 6.19-3.82 8.88z" class="cls-5"/><path d="M218.18 183.2a12.16 12.16 0 0 0-2.8-5.58 4.17 4.17 0 0 0-2-1.15c-2.35-.52-4.37 1.84-5.11 4.13-1.2 3.67-.71 7.66 0 11.45a101.32 101.32 0 0 0 6.11 20.45 8.53 8.53 0 0 0 1.79 3 3.1 3.1 0 0 0 3.23.78 4.59 4.59 0 0 0 1.74-1.73l6.07-8.75a7.64 7.64 0 0 0 1.24-2.32 7.52 7.52 0 0 0 0-2.95c-.38-2.67-.84-5.33-1.36-8-.77-3.89-6.73 6-6.73 6s-.47-7.77-.78-9.36c-.36-2.02-.84-4-1.4-5.97z" class="cls-39"/><path d="M210 164.81c1.22-.89 1.53-2.54 1.7-4a61.38 61.38 0 0 0 0-13.75c-.17-1.45-.48-3.05-1.65-3.93-5.41-4.09-9.53 7.1-9.46 10.76S205 168.5 210 164.81z" class="cls-41"/><path d="M210.32 140.47a3.88 3.88 0 0 1 1.07 3.32c-.3 1.42-1.59 2.38-2.64 3.38a13.2 13.2 0 0 0-3.75 12.58 11.55 11.55 0 0 0 9.75 8.51 9.85 9.85 0 0 1-6.65 8.66 13.78 13.78 0 0 1-11.19-1.3 32.8 32.8 0 0 0-3.91-2.2 8.56 8.56 0 0 0-5.22-.35c-1.43.36-2.74 1.08-4.14 1.54-3.45 1.13-8 0-9.27-3.34a6.86 6.86 0 0 1 1.36-6.5 16.64 16.64 0 0 1 5.55-4.11c1.4-.72 2.91-1.47 3.64-2.86a6.44 6.44 0 0 0 .57-3c.06-3.3-.31-6.62.08-9.91s1.69-6.65 4.38-8.58a11.19 11.19 0 0 1 6.18-1.88 19.37 19.37 0 0 1 14.19 6.04z" class="cls-44"/></g></g></svg>